<svg xmlns="http://www.w3.org/2000/svg" viewBox="0 0 756.99 533.34"><defs><style>.cls-1{fill:red;}.cls-2{fill:#fff;}</style></defs><title>Asset 2</title><g id="Layer_2" data-name="Layer 2"><g id="Layer_1-2" data-name="Layer 1"><path class="cls-1" d="M741.17,83.28a95.09,95.09,0,0,0-66.93-67.36C615.21,0,378.49,0,378.49,0S141.78,0,82.75,15.92A95.09,95.09,0,0,0,15.82,83.28C0,142.7,0,266.67,0,266.67s0,124,15.82,183.39a95.11,95.11,0,0,0,66.92,67.36c59,15.92,295.75,15.92,295.75,15.92s236.72,0,295.75-15.92a95.14,95.14,0,0,0,66.93-67.36C757,390.64,757,266.67,757,266.67s0-124-15.82-183.39"/><path class="cls-2" d="M301.07,379.22,498.92,266.67,301.07,154.11Z"/></g></g></svg>