<svg id="Layer_1" data-name="Layer 1" xmlns="http://www.w3.org/2000/svg" viewBox="0 0 943.2 226.8"><defs><style>.cls-1{fill:red;}.cls-2{fill:#fff;}.cls-3{fill:#282828;}.cls-4{fill:none;}</style></defs><title>logo-full</title><g id="g7433"><path id="path7429" class="cls-1" d="M426.53,329.25a36.86,36.86,0,0,0-25.92-25.92c-23-6.3-115.09-6.3-115.09-6.3s-92.06,0-115.08,6.06a37.61,37.61,0,0,0-25.92,26.16c-6.06,23-6.06,70.75-6.06,70.75s0,48,6.06,70.74a36.84,36.84,0,0,0,25.92,25.93C193.7,503,285.52,503,285.52,503s92.07,0,115.09-6.06A36.85,36.85,0,0,0,426.53,471c6.06-23,6.06-70.75,6.06-70.75s.24-48-6.06-71Z" transform="translate(-127.84 -287.29)"/><path id="polygon7431" class="cls-2" d="M256.21,355.91v88.18L332.77,400Z" transform="translate(-127.84 -287.29)"/></g><g id="g7451"><g id="g7449"><path id="path7435" class="cls-3" d="M565.6,484.55c-5.82-3.87-9.94-9.93-12.36-18.41-2.42-8.24-3.63-19.38-3.63-32.95V414.54c0-13.81,1.45-25,4.12-33.44,2.9-8.48,7.26-14.53,13.08-18.41,6.05-3.88,13.81-5.82,23.5-5.82,9.45,0,17.2,1.94,23,5.82s9.93,10.17,12.59,18.41S630,400.48,630,414.54v18.65c0,13.81-1.21,24.71-3.87,33.19-2.67,8.24-6.79,14.54-12.6,18.42s-13.81,5.81-23.75,5.81c-10.17-.24-18.41-2.18-24.22-6.06Zm32.7-20.35c1.7-4.12,2.43-11.14,2.43-20.59V403.39c0-9.2-.73-16-2.43-20.35s-4.36-6.3-8.48-6.3c-3.87,0-6.78,2.18-8.23,6.3-1.7,4.36-2.43,11.15-2.43,20.35v40.22c0,9.45.73,16.47,2.43,20.59,1.45,4.12,4.36,6.3,8.48,6.3C593.94,470.5,596.61,468.56,598.3,464.2Z" transform="translate(-127.84 -287.29)"/><path id="path7437" class="cls-3" d="M1012.84,433.43V440a173.85,173.85,0,0,0,.73,18.65c.48,4.12,1.45,7.27,3.15,9q2.17,2.89,7.27,2.9c4.36,0,7.26-1.69,9-5.09s2.42-9,2.66-17l25,1.45a25.17,25.17,0,0,1,.24,4.6c0,11.87-3.15,20.84-9.69,26.65s-15.75,8.72-27.62,8.72c-14.29,0-24.23-4.6-30-13.56s-8.72-22.78-8.72-41.67V412.11c0-19.38,2.9-33.43,9-42.39s16.23-13.33,30.53-13.33c9.93,0,17.68,1.94,23,5.57s9,9.45,11.15,17c2.18,7.75,3.15,18.41,3.15,32V433h-48.7Zm3.63-54.27c-1.45,1.94-2.42,4.85-2.9,9a176,176,0,0,0-.73,18.9v9.2h21.32V407a182.26,182.26,0,0,0-.73-18.9c-.48-4.36-1.69-7.27-3.15-9a8.74,8.74,0,0,0-6.78-2.66c-3.39-.24-5.57.73-7,2.66Z" transform="translate(-127.84 -287.29)"/><path id="path7439" class="cls-3" d="M494.85,431l-33-119.44h28.83l11.63,54q4.36,20,6.54,34.16h.73c1-6.79,3.15-17.93,6.54-33.92l12.12-54.27h28.83L523.68,431v57.18H495.09V431Z" transform="translate(-127.84 -287.29)"/><path id="path7441" class="cls-3" d="M723.8,359.3V488.43H701l-2.42-15.75h-.73c-6.06,11.87-15.51,17.93-27.86,17.93-8.48,0-14.78-2.91-18.9-8.48s-6.06-14.29-6.06-26.41V359.3h29.08V454c0,5.81.72,9.93,1.94,12.35a6.52,6.52,0,0,0,6.29,3.64,12.45,12.45,0,0,0,7.27-2.42,11.83,11.83,0,0,0,5.09-5.82V359.3Z" transform="translate(-127.84 -287.29)"/><path id="path7443" class="cls-3" d="M872.8,359.3V488.43H850l-2.42-15.75h-.73c-6.06,11.87-15.5,17.93-27.86,17.93-8.48,0-14.78-2.91-18.9-8.48s-6.06-14.29-6.06-26.41V359.3h29.08V454c0,5.81.72,9.93,1.94,12.35a6.52,6.52,0,0,0,6.3,3.64,12.44,12.44,0,0,0,7.26-2.42,11.83,11.83,0,0,0,5.09-5.82V359.3Z" transform="translate(-127.84 -287.29)"/><path id="path7445" class="cls-3" d="M802.79,335.07H774V488.19H745.61V335.07H716.78v-23.5h86Z" transform="translate(-127.84 -287.29)"/><path id="path7447" class="cls-3" d="M969,379.89c-1.7-8.24-4.6-14.05-8.48-17.69s-9.45-5.57-16.23-5.57a26.17,26.17,0,0,0-15,4.61,29.63,29.63,0,0,0-10.66,11.87h-.24V305h-28.1V488.19h24l2.91-12.11h.73A24.72,24.72,0,0,0,928,486.49a31.42,31.42,0,0,0,15,3.88c9.94,0,17-4.6,21.57-13.57s7-23.26,7-42.4V414.05c-.24-14.78-1-26.16-2.66-34.16Zm-26.65,52.58a168.91,168.91,0,0,1-1.21,22c-.73,5.33-2.18,9.21-3.88,11.39a9.44,9.44,0,0,1-7.27,3.39,12,12,0,0,1-6.54-1.69,14.14,14.14,0,0,1-4.85-5.09V389.34a19.84,19.84,0,0,1,5.09-8.72,11.77,11.77,0,0,1,7.76-3.39,7.85,7.85,0,0,1,6.78,3.39c1.7,2.42,2.66,6.3,3.39,11.63.73,5.57,1,13.32,1,23.26v17Z" transform="translate(-127.84 -287.29)"/></g></g><rect class="cls-4" width="943.2" height="226.8"/></svg>